Coordinates
version=1
nRows=13
nColumns=22
inDegrees=yes

Units are S.I. units (second, meters, Newtons, ...)
If the header above contains a line with 'inDegrees', this indicates whether rotational values are in degrees (yes) or radians (no).

endheader
time	pelvis_tilt	pelvis_list	pelvis_rotation	pelvis_tx	pelvis_ty	pelvis_tz	hip_flexion_r	hip_adduction_r	hip_rotation_r	knee_angle_r	ankle_angle_r	subtalar_angle_r	hip_flexion_l	hip_adduction_l	hip_rotation_l	knee_angle_l	ankle_angle_l	subtalar_angle_l	lumbar_extension	lumbar_bending	lumbar_rotation
      0.01000000	     -0.81251377	     -4.02440024	     -4.30210017	     -1.22487871	      1.02314720	      0.61663110	      0.99799093	      5.04572976	     -2.58510602	     -9.87971028	      9.51056141	     -2.54272812	      0.84126908	     -1.11064456	     -4.23874528	     -8.85900751	     11.00471735	     -6.83794573	     -7.76723584	      3.71512370	      0.46156112
      0.02000000	     -0.76931888	     -4.02178667	     -4.21805613	     -1.22494267	      1.02319370	      0.61632234	      0.96191580	      5.02783267	     -2.65990841	     -9.89092629	      9.51552873	     -2.53720931	      0.83738583	     -1.09284089	     -4.17444546	     -8.91109344	     11.01151033	     -6.86155013	     -7.82145667	      3.71351272	      0.38899212
      0.03000000	     -0.73583590	     -4.00791579	     -4.13317036	     -1.22502257	      1.02322014	      0.61596771	      0.93939678	      4.99589083	     -2.72365792	     -9.90492688	      9.53811984	     -2.53540989	      0.84929454	     -1.06014824	     -4.10310899	     -8.96824077	     11.02238797	     -6.87513886	     -7.86701171	      3.70150604	      0.30741211
      0.04000000	     -0.70051620	     -3.99805489	     -4.03904480	     -1.22509231	      1.02324223	      0.61558411	      0.91685832	      4.96686963	     -2.80059481	     -9.92507268	      9.56129264	     -2.53356346	      0.85994644	     -1.03004218	     -4.01139746	     -9.02784545	     11.03484553	     -6.88915103	     -7.91419067	      3.69111340	      0.21531227
      0.05000000	     -0.66423972	     -3.98661093	     -3.95227189	     -1.22514494	      1.02326261	      0.61519453	      0.89184868	      4.93511315	     -2.86514781	     -9.94453906	      9.58510386	     -2.53171055	      0.86959501	     -0.99715288	     -3.92740949	     -9.09145099	     11.05185543	     -6.90406988	     -7.96300582	      3.67693598	      0.12259100
      0.06000000	     -0.62454903	     -3.97526862	     -3.86828082	     -1.22517408	      1.02328594	      0.61480312	      0.86333602	      4.90265338	     -2.92764831	     -9.96754666	      9.61246124	     -2.52961634	      0.87221111	     -0.96356287	     -3.84324930	     -9.15217890	     11.07170801	     -6.92146956	     -8.01564992	      3.65893532	      0.02975698
      0.07000000	     -0.58151934	     -3.96330663	     -3.79295303	     -1.22517088	      1.02331219	      0.61442030	      0.83044211	      4.86936012	     -2.98000772	     -9.99330249	      9.64179699	     -2.52658742	      0.86653457	     -0.92832191	     -3.76675731	     -9.20938749	     11.09288392	     -6.94205892	     -8.07143723	      3.63659727	     -0.05633060
      0.08000000	     -0.53603925	     -3.95119451	     -3.73002385	     -1.22513980	      1.02334220	      0.61405032	      0.79528318	      4.83528217	     -3.01898837	    -10.02319667	      9.67240263	     -2.52214231	      0.85384441	     -0.89263597	     -3.70045546	     -9.26507160	     11.11414334	     -6.96543955	     -8.13039920	      3.61099513	     -0.13099664
      0.09000000	     -0.48748717	     -3.93921037	     -3.67329801	     -1.22508379	      1.02337464	      0.61368444	      0.75667233	      4.80059162	     -3.05263187	    -10.05574368	      9.70646053	     -2.51518418	      0.83449427	     -0.85660327	     -3.64109257	     -9.31854795	     11.13463940	     -6.99392594	     -8.19379492	      3.58258145	     -0.19602458
      0.10000000	     -0.43527236	     -3.92855290	     -3.62098562	     -1.22500693	      1.02341093	      0.61331953	      0.71344826	      4.76666270	     -3.08403126	    -10.08990577	      9.74339841	     -2.50398813	      0.80837339	     -0.82131186	     -3.58694599	     -9.36929925	     11.15200679	     -7.03062115	     -8.26211387	      3.55267925	     -0.25078018
      0.11000000	     -0.40513033	     -3.92945609	     -3.59534329	     -1.22494402	      1.02342193	      0.61299412	      0.70094194	      4.74832131	     -3.06786840	    -10.13653926	      9.74948761	     -2.49911490	      0.80714001	     -0.80120629	     -3.55010150	     -9.42910645	     11.15501671	     -7.04424515	     -8.31198383	      3.53313444	     -0.26500241
      0.12000000	     -0.34148758	     -3.91353766	     -3.53647346	     -1.22483178	      1.02346537	      0.61259731	      0.64349250	      4.70457831	     -3.12550175	    -10.17042577	      9.81719447	     -2.47821031	      0.77139290	     -0.75859109	     -3.50305243	     -9.48622765	     11.18539450	     -7.09933160	     -8.39711337	      3.49267110	     -0.32045906
      0.13000000	     -0.31386629	     -3.91995303	     -3.51172166	     -1.22476121	      1.02347468	      0.61225662	      0.63225369	      4.69128376	     -3.11121255	    -10.21506298	      9.82033131	     -2.47071340	      0.77549753	     -0.74330565	     -3.45943818	     -9.55155508	     11.18175834	     -7.11348511	     -8.45213605	      3.47318061	     -0.31224897
